<?xml version="1.0" encoding="UTF-8" standalone="no"?>
<!-- Created with Inkscape (http://www.inkscape.org/) -->

<svg
   width="110.33125mm"
   height="71.305206mm"
   viewBox="0 0 110.33125 71.305207"
   version="1.1"
   id="svg5"
   xml:space="preserve"
   inkscape:version="1.2 (dc2aedaf03, 2022-05-15)"
   sodipodi:docname="leaf_flower_dissect.svg"
   inkscape:export-filename="leaf_flower_dissect.png"
   inkscape:export-xdpi="150"
   inkscape:export-ydpi="150"
   xmlns:inkscape="http://www.inkscape.org/namespaces/inkscape"
   xmlns:sodipodi="http://sodipodi.sourceforge.net/DTD/sodipodi-0.dtd"
   xmlns="http://www.w3.org/2000/svg"
   xmlns:svg="http://www.w3.org/2000/svg"><sodipodi:namedview
     id="namedview7"
     pagecolor="#ffffff"
     bordercolor="#000000"
     borderopacity="0.25"
     inkscape:showpageshadow="2"
     inkscape:pageopacity="0.0"
     inkscape:pagecheckerboard="0"
     inkscape:deskcolor="#d1d1d1"
     inkscape:document-units="mm"
     showgrid="false"
     inkscape:zoom="1.4142136"
     inkscape:cx="74.599765"
     inkscape:cy="31.112698"
     inkscape:window-width="1920"
     inkscape:window-height="1017"
     inkscape:window-x="-8"
     inkscape:window-y="-8"
     inkscape:window-maximized="1"
     inkscape:current-layer="layer1" /><defs
     id="defs2" /><g
     inkscape:label="Layer 1"
     inkscape:groupmode="layer"
     id="layer1"
     transform="translate(-57.487259,-112.96442)"><rect
       style="fill:#ffffff;fill-opacity:1;stroke:none;stroke-width:0.4;stroke-linecap:round;stroke-linejoin:round;stroke-dasharray:none;stroke-opacity:1"
       id="rect2850"
       width="110.33125"
       height="71.305206"
       x="57.487259"
       y="112.96442" /><path
       style="fill:#ffffff;stroke-width:0.633601;stroke-linecap:round;stroke-linejoin:round"
       d="m 204.94031,108.42901 c -0.23051,-0.23931 -0.4191,-0.56176 -0.4191,-0.71656 0,-0.6386 -2.471,-3.8719 -5.73967,-7.51034 -3.32898,-3.70557 -5.76565,-5.775067 -12.66332,-10.755108 -1.58803,-1.146542 -3.77482,-2.774541 -4.85952,-3.617775 -1.0847,-0.843238 -5.00749,-3.563236 -8.7173,-6.04444 -3.70981,-2.481205 -7.95212,-5.356062 -9.42735,-6.388572 -3.03189,-2.122002 -10.06062,-8.829308 -12.33114,-11.767242 -0.82845,-1.071956 -2.40909,-2.854271 -3.51255,-3.960698 -1.10346,-1.106426 -2.76095,-2.916941 -3.6833,-4.023368 -0.92236,-1.106426 -2.69663,-3.067818 -3.94283,-4.358648 -1.2462,-1.290831 -2.6551,-2.875032 -3.13088,-3.520447 -0.47578,-0.645416 -1.63761,-2.078741 -2.58185,-3.185167 -5.21787,-6.114143 -8.2506,-12.871411 -7.26029,-16.176779 0.31073,-1.037119 0.71757,-1.445169 2.31823,-2.325134 2.19405,-1.20619 6.72607,-3.206201 9.48148,-4.18425 2.40215,-0.852658 8.38391,-1.958946 10.54219,-1.94971 3.22639,0.01381 7.40738,1.199329 11.03561,3.129151 1.87033,0.994816 5.362,2.82821 7.75926,4.07421 4.33326,2.252259 13.41344,8.107476 17.62891,11.367732 3.68969,2.853618 6.78682,5.509261 11.75472,10.079135 1.40865,1.295788 4.48784,4.091055 6.84265,6.211706 5.59114,5.035164 7.72882,7.165273 11.38357,11.343262 4.14154,4.734465 4.38426,5.189317 4.64167,8.6981 0.24422,3.328948 1.25322,10.306775 2.24107,15.498389 0.36843,1.936246 0.89762,6.009906 1.17598,9.052578 0.27836,3.042675 0.56076,5.783735 0.62755,6.091245 0.15826,0.72864 -3.28266,2.29368 -8.51863,3.87452 -4.36948,1.31924 -9.86986,1.86912 -10.64516,1.06421 z"
       id="path458"
       transform="matrix(0.26458333,0,0,0.26458333,58.4133,113.89046)" /><path
       style="fill:#ffffff;fill-opacity:1;stroke:#000000;stroke-width:1.51181;stroke-linecap:round;stroke-linejoin:round;stroke-dasharray:none;stroke-opacity:1"
       d="m 296.17567,124.30531 c 0.46082,-21.09458 0.61558,-30.594362 0.90306,-30.594362 0.14852,0 0.36286,0.292461 0.47631,0.649911 0.11345,0.357453 0.73237,1.111834 1.37538,1.676403 1.27011,1.115167 2.90624,1.361639 3.95384,0.595616 0.78755,-0.575871 2.10643,-4.696273 2.58341,-8.070983 0.21223,-1.501525 0.56831,-3.973103 0.79129,-5.492397 0.41684,-2.840106 0.18994,-4.404841 -0.81417,-5.614728 -1.08125,-1.302823 -7.92434,-3.49756 -10.96935,-3.518127 -0.95004,-0.0064 -1.09515,-0.133445 -1.25309,-1.096917 -0.0982,-0.599314 -0.33921,-2.070358 -0.53548,-3.268987 -0.58901,-3.597042 -2.52553,-10.627542 -4.67108,-16.958258 -1.11176,-3.28039 -2.02138,-6.332899 -2.02138,-6.783355 0,-0.91715 3.07875,-8.525339 5.11345,-12.63634 2.00019,-4.041284 5.51787,-8.530868 10.77475,-13.751734 7.36867,-7.318194 13.62583,-11.2640895 22.50144,-14.1898761 7.83238,-2.5818932 12.5048,-3.4071322 19.29084,-3.4071322 2.13703,0 6.36553,-0.2407199 9.39665,-0.534933 8.72314,-0.84670263 11.62808,-0.285211 13.89399,2.6855476 1.16953,1.5333294 2.77598,6.2693687 3.24034,9.5529647 0.60084,4.24867 0.12307,6.261248 -2.7045,11.392543 -1.2936,2.347553 -4.07998,7.805091 -6.19195,12.127861 -2.11197,4.322771 -5.0228,9.998811 -6.46851,12.613424 -2.39938,4.339346 -3.0963,5.270531 -7.99306,10.679809 -2.95047,3.259283 -7.30896,8.362118 -9.68555,11.339631 -2.37658,2.977514 -4.56429,5.583161 -4.86157,5.790324 -0.29728,0.207164 -1.70113,0.858859 -3.11967,1.448212 -3.30801,1.374359 -6.18926,3.565636 -11.02778,8.386932 -8.14297,8.113976 -10.4726,12.694271 -14.84343,29.183671 -1.7283,6.52022 -3.3319,13.52682 -4.23963,18.52426 l -0.53607,2.91939 -1.25121,-0.0625 -1.40747,0.15625 z"
       id="path614"
       transform="matrix(0.26458333,0,0,0.26458333,58.4133,113.89046)"
       sodipodi:nodetypes="sssssssssssssssssssssssssssssscccs" /><path
       style="fill:#ffffff;fill-opacity:1;stroke:#000000;stroke-width:0.4;stroke-linecap:round;stroke-linejoin:round;stroke-dasharray:none;stroke-opacity:1"
       d="m 139.32748,153.18958 c -0.23561,-0.36234 -0.62435,-0.99812 -0.86386,-1.41283 -0.23951,-0.41472 -0.56924,-0.89376 -0.73273,-1.06452 -0.3351,-0.35001 -0.33645,-0.18317 0.0161,-1.99208 0.25771,-1.32239 0.80484,-3.37014 1.13438,-4.24565 0.33734,-0.89622 0.70741,-1.59285 1.42425,-2.68106 0.59099,-0.89716 0.94973,-1.33042 2.85815,-3.45182 1.75403,-1.94979 2.91745,-3.31175 3.79266,-4.43988 2.66317,-3.43279 7.1833,-8.18152 9.31496,-9.78606 1.63415,-1.23005 3.92685,-2.24351 6.04619,-2.67263 1.94691,-0.3942 2.3207,-0.23491 3.05678,1.30264 0.25113,0.52456 0.51124,1.10861 0.57802,1.2979 0.41667,1.18096 -0.24066,3.05798 -1.52511,4.35499 -0.87222,0.88076 -1.33383,1.21198 -3.09943,2.22397 -2.88425,1.65316 -4.54868,2.80745 -7.8508,5.44454 -7.21165,5.75928 -11.52848,9.83614 -12.57948,11.88022 -0.51041,0.99269 -0.78814,2.23543 -0.89671,4.01235 -0.0494,0.80806 -0.12468,1.56359 -0.16736,1.67896 -0.0724,0.19565 -0.10642,0.16543 -0.50599,-0.44904 z"
       id="path616" /><path
       style="fill:#ffffff;fill-opacity:1;stroke:#000000;stroke-width:1.51181;stroke-linecap:round;stroke-linejoin:round;stroke-dasharray:none;stroke-opacity:1"
       d="m 248.13878,220.93414 c -0.83914,-0.95573 -0.99612,-1.36397 -0.80534,-2.09441 0.13033,-0.49901 0.24221,-2.41606 0.24861,-4.2601 0.0109,-3.14444 -0.12785,-3.84334 -2.23313,-11.24605 -4.52998,-15.92858 -5.24775,-19.386 -7.63329,-36.76894 -2.18749,-15.93982 -3.13961,-20.12131 -6.06186,-26.62231 -2.12468,-4.72668 -2.80381,-5.63806 -5.21553,-6.99916 -3.45786,-1.95149 -4.0934,-2.07443 -12.19389,-2.35888 -6.30655,-0.22145 -7.92059,-0.38397 -9.84106,-0.99089 -3.31378,-1.04724 -6.77209,-2.68971 -11.27988,-5.35719 -7.05938,-4.1774 -10.52716,-7.38172 -15.21699,-14.06089 -5.25106,-7.47849 -5.84078,-10.238749 -2.55093,-11.939998 2.12476,-1.098754 4.08163,-0.462838 8.42809,2.738828 5.43955,4.00687 13.85169,7.68347 19.92927,8.71027 2.71196,0.45818 3.68381,0.48297 6.03596,0.15392 4.29945,-0.60147 9.5345,-2.23252 14.88924,-4.63895 7.34088,-3.299 9.22707,-3.98423 13.18796,-4.79102 5.14917,-1.048825 8.95202,-0.858451 11.95809,0.59863 4.34799,2.10754 9.39922,7.28911 11.73905,12.04198 1.17249,2.38167 1.20265,3.41815 0.17845,6.13298 -0.81392,2.15745 -0.71371,7.94517 0.29914,17.27727 1.90182,17.52277 1.86181,22.64547 -0.34824,44.59233 -0.46424,4.61011 -0.96385,10.97412 -1.11023,14.14224 l -0.26616,5.76022 -2.68119,4.13056 c -4.67364,7.20006 -7.17515,12.19236 -7.67474,15.31659 -0.12329,0.77102 -0.34002,1.47346 -0.48162,1.56098 -0.14161,0.0875 -0.72651,-0.37509 -1.29978,-1.02801 z"
       id="path618"
       transform="matrix(0.26458333,0,0,0.26458333,58.4133,113.89046)" /><path
       style="fill:#ffffff;fill-opacity:1;stroke:#000000;stroke-width:1.51181;stroke-linecap:round;stroke-linejoin:round;stroke-dasharray:none;stroke-opacity:1"
       d="m 203.51881,106.94275 c -2.71691,-5.71299 -8.98885,-10.883564 -14.0304,-14.46705 -1.22879,-0.87341 -3.97455,-2.883179 -6.10169,-4.466157 -2.12714,-1.582974 -7.70957,-5.461789 -12.40538,-8.61959 -10.69258,-7.190442 -13.9919,-9.963418 -20.09354,-16.888017 -2.66755,-3.027323 -6.38538,-7.163861 -8.26186,-9.192309 -8.86382,-9.581653 -13.95225,-16.285138 -15.55213,-20.488319 -0.87085,-2.287914 -1.23066,-5.926277 -0.71665,-7.246846 0.43371,-1.11428 4.37805,-3.177795 10.06188,-5.263964 8.23666,-3.023147 13.24218,-3.542862 18.34816,-1.905062 3.21118,1.030021 12.29488,5.587658 18.34102,9.202386 5.08852,3.042211 13.45782,8.960493 16.79647,11.877478 17.35752,15.165335 27.59901,25.288468 29.64858,29.305945 0.48252,0.945814 1.6528,2.726992 2.01948,5.890691 0.29336,2.531107 0.96676,7.681233 1.60295,11.444718 1.10039,6.509551 3.14289,18.007996 2.80776,18.550256 -0.31513,0.50989 -6.30995,2.77639 -9.97273,3.7599 -2.45788,0.65998 -4.78467,1.55524 -6.98027,1.53177 l -4.09347,-0.0437 z"
       id="path620"
       transform="matrix(0.26458333,0,0,0.26458333,58.4133,113.89046)"
       sodipodi:nodetypes="sssssssssssssssssscs" /><path
       style="fill:#ffffff;fill-opacity:1;stroke:#000000;stroke-width:1.51181;stroke-linecap:round;stroke-linejoin:round;stroke-dasharray:none;stroke-opacity:1"
       d="m 242.16808,214.60987 c -3.6194,-4.55556 -11.48163,-14.86038 -14.29998,-18.83534 -1.93566,-2.73005 -2.59524,-6.1128 -3.71222,-10.62355 -1.21283,-4.89782 -1.47574,-8.53635 -1.87094,-25.89266 -0.19314,-8.4826 -0.52399,-16.54925 -0.73521,-17.92588 -0.2803,-1.82688 -0.86922,-3.49157 -2.18023,-6.16283 -0.98791,-2.01292 -1.75028,-3.70577 -1.69417,-3.76189 0.0561,-0.0561 1.18788,-0.62195 2.51502,-0.45529 2.34573,0.29454 5.90525,1.60795 8.11268,3.16636 1.1058,0.78068 4.11863,6.72636 5.40426,10.7961 1.35772,4.29795 2.47761,11.42627 4.52733,25.54408 2.2382,15.41592 3.1812,19.02924 6.762,31.26275 2.63816,9.01306 2.73651,9.78493 2.73813,13.10198 9.4e-4,1.89235 -0.71009,4.62116 -0.89254,4.80361 -0.21879,0.21878 -2.34607,-2.08722 -4.67413,-5.01744 z"
       id="path622"
       transform="matrix(0.26458333,0,0,0.26458333,58.4133,113.89046)"
       sodipodi:nodetypes="sssssssssssssss" /><path
       style="fill:#abd7e6;fill-opacity:1;stroke:#000000;stroke-width:1.51181;stroke-linecap:round;stroke-linejoin:round;stroke-dasharray:none;stroke-opacity:1"
       d="m 225.43375,104.85691 c -0.0816,-0.13205 -0.3309,-2.22709 -0.44748,-3.56405 -0.63132,-7.240289 -0.96331,-10.339094 -1.18752,-11.084211 -0.27803,-0.923969 -0.79718,-4.170534 -1.32689,-8.297773 -0.19246,-1.499526 -0.4535,-3.099811 -0.5801,-3.556188 -0.41585,-1.499088 -1.02152,-9.05674 -1.01647,-12.68374 0.003,-1.955903 0.19085,-5.156473 0.41806,-7.112377 0.50651,-4.360298 0.40737,-7.124129 -0.31468,-8.771931 -1.41092,-3.219933 -2.4089,-4.385966 -3.75384,-4.385966 -1.46183,0 -1.7198,0.302612 -1.7198,2.017426 0,1.450711 -0.0348,1.544563 -0.69947,1.888293 -0.90224,0.466566 -1.58319,0.456067 -3.2258,-0.04974 -0.95244,-0.293282 -1.57697,-0.677975 -2.17463,-1.339518 -0.83357,-0.922661 -0.8377,-0.93812 -0.70818,-2.650681 0.26424,-3.493818 3.23029,-7.925318 6.31107,-9.429207 0.84566,-0.412808 2.8492,-0.534677 3.23527,-0.196792 0.12387,0.108412 0.65197,0.319071 1.17354,0.468132 1.21561,0.347407 2.16512,1.237782 2.37716,2.22909 0.2282,1.066833 0.52522,1.373091 1.33168,1.373091 0.75524,0 0.84577,-0.144108 1.52007,-2.419754 0.22048,-0.744093 0.58451,-1.51908 0.80894,-1.722192 0.64065,-0.579778 3.07085,-1.134747 3.78877,-0.865217 0.33268,0.124899 1.07303,0.292711 1.64523,0.372916 1.13667,0.159327 3.42767,1.126258 3.98208,1.680662 0.19185,0.19185 0.54164,0.452016 0.77732,0.578147 0.55024,0.294477 2.09424,2.616176 2.40676,3.619025 0.13226,0.424372 0.34297,0.961205 0.46827,1.192961 0.12529,0.231757 0.43512,1.771932 0.68851,3.422611 0.4295,2.797946 0.43704,3.181825 0.11122,5.66732 -0.42986,3.279149 -0.47844,3.409513 -1.27037,3.409513 -0.52135,0 -0.82068,0.281526 -1.6654,1.566338 -0.97314,1.480156 -1.03593,1.679085 -1.14113,3.615458 -0.12122,2.231368 0.14142,4.76644 0.87546,8.45026 0.55618,2.791212 1.29632,6.01664 1.49607,6.519679 0.0777,0.19559 0.30381,1.049076 0.50253,1.896634 0.19872,0.847558 0.58499,2.3945 0.85838,3.437649 0.76053,2.901928 1.15913,4.573538 1.55462,6.519679 0.19874,0.977952 0.50987,2.311522 0.69141,2.96349 0.18154,0.651968 0.40005,1.539311 0.48558,1.971874 0.0855,0.432563 0.30484,1.072676 0.48733,1.422475 0.1825,0.349799 0.33313,0.796027 0.33474,0.991617 0.002,0.19559 0.15061,0.638692 0.33113,0.984668 0.18051,0.345977 0.46047,1.039434 0.62213,1.541015 0.16166,0.501582 0.37365,1.018652 0.47109,1.149045 0.0974,0.130394 0.25076,0.477122 0.3407,0.770508 0.15387,0.501889 0.35741,1.230591 -0.71716,1.231793 -1.91768,0.0021 -8.60739,1.189288 -10.16272,1.886488 -0.39118,0.17535 -1.4572,0.54619 -1.78318,0.63771 -0.60753,0.17056 -3.45042,1.27944 -4.58848,1.89597 -0.40943,0.22181 -1.51625,0.91244 -1.61182,0.7578 z"
       id="path624"
       transform="matrix(0.26458333,0,0,0.26458333,58.4133,113.89046)"
       sodipodi:nodetypes="ssssscsssssssssssssssssssssssssssssssssscsssssssss" /><path
       style="fill:#ffb5bf;fill-opacity:1;stroke:#000000;stroke-width:1.51181;stroke-linecap:round;stroke-linejoin:round;stroke-dasharray:none;stroke-opacity:1"
       d="m 260.34897,196.85778 c 0.0681,-1.34905 0.37201,-4.05524 0.44612,-5.93737 0.0741,-1.88214 0.3285,-3.82458 0.45072,-4.35472 0.12223,-0.53014 0.29406,-2.85299 0.49644,-5.20007 0.20237,-2.34709 -0.0158,-6.62367 0.24094,-9.42713 1.23,-13.43258 1.85536,-18.9129 0.627,-30.48948 -0.25596,-2.41228 -0.79039,-6.0563 -0.99665,-8.40339 -0.20626,-2.34708 -0.42872,-5.40216 -0.57075,-6.44531 -0.14203,-1.04315 -0.0152,-3.43922 0.0526,-4.02599 0.35103,-3.03531 0.623,-4.03818 1.05385,-4.73531 0.90429,-1.46318 0.38361,-2.86546 -1.21914,-5.87511 -1.68197,-3.15821 -5.69075,-7.20537 -8.71044,-9.30048 -1.4025,-0.97308 -3.28414,-2.23821 -4.59756,-2.5187 -0.42228,-0.0902 -0.63951,-0.822278 -0.71188,-0.939388 -0.13774,-0.222861 -0.30296,-1.64426 -0.92175,-7.929826 -0.20539,-2.086297 -0.47554,-4.273353 -0.60034,-4.860124 -0.12479,-0.586772 -0.28991,-1.866999 -0.36693,-2.844951 -0.077,-0.977952 -0.24342,-2.25818 -0.36979,-2.844951 -0.12636,-0.586771 -0.39716,-2.507113 -0.60178,-4.267426 -0.20461,-1.760314 -0.57839,-4.907541 -0.83061,-6.993838 -0.97288,-8.047282 -1.15698,-10.680505 -1.11054,-15.884309 0.0978,-10.957101 0.0795,-11.937627 -0.22858,-12.245406 -0.16299,-0.162847 -0.29635,-0.440763 -0.29635,-0.617591 0,-0.176828 -0.50096,-1.462391 -1.11324,-2.856805 l -1.11324,-2.535299 -0.0129,-2.844951 c -0.0124,-2.731054 0.0174,-2.906644 0.74335,-4.385966 0.41593,-0.847558 0.94971,-1.754386 1.18617,-2.015173 1.43981,-1.587924 4.66813,-3.147729 8.252,-3.987057 5.05635,-1.184179 5.39987,-1.228686 9.48317,-1.228686 3.31923,0 4.28132,0.08018 5.45282,0.454432 3.72839,1.191094 6.39161,3.377383 8.41557,6.908506 l 0.55128,0.961799 -0.90018,1.527533 c -0.72359,1.227875 -0.92195,1.829836 -1.01111,3.068548 -0.18856,2.619415 0.95574,6.988778 2.37217,9.05777 0.20861,0.304729 0.21043,0.596842 0.007,1.185396 -0.1482,0.429561 -0.34145,1.238577 -0.42944,1.797814 -0.10629,0.675528 -0.33914,1.134175 -0.69375,1.366529 -0.29357,0.192354 -0.6569,0.619974 -0.80739,0.950266 -0.33479,0.734779 -0.36081,4.045039 -0.0392,4.988076 0.12892,0.378039 0.4029,1.807544 0.60883,3.176677 0.20594,1.369132 0.47367,3.112243 0.59495,3.873578 0.24314,1.52624 0.56665,8.237496 0.93894,19.478726 0.34264,10.345889 1.04284,19.822688 1.63651,22.149187 0.11895,0.46612 0.28765,1.64764 0.37489,2.62559 0.0872,0.97796 0.26198,2.25744 0.3883,2.84329 0.12632,0.58586 0.38027,2.45286 0.56432,4.14889 0.18406,1.69603 0.44231,3.99052 0.5739,5.09886 0.68263,5.74951 1.08635,14.15593 0.75716,15.76577 -0.13331,0.65197 -0.40751,2.62566 -0.60933,4.38597 -0.58557,5.10745 -1.04958,8.57098 -1.30225,9.72025 -0.12899,0.58677 -0.29862,1.76031 -0.37694,2.60787 -0.0783,0.84756 -0.24716,2.08374 -0.3752,2.74707 -0.60468,3.13268 -0.87696,11.55628 -0.91063,15.9491 -0.0149,1.94726 -0.5825,3.1742 -0.8018,3.39453 -0.73203,0.73545 -4.17678,7.58534 -4.20073,8.35314 -0.004,0.14186 -0.21417,0.68466 -0.46611,1.20624 -0.25194,0.52157 -0.46531,1.10834 -0.47416,1.30393 -0.009,0.19559 -0.22222,0.78237 -0.47416,1.30394 -0.25194,0.52157 -0.46169,1.05294 -0.46611,1.18081 -0.009,0.24931 -0.15992,0.64813 -2.38508,6.28719 -1.57114,3.98161 -3.72455,8.31646 -4.21209,8.47897 -0.23951,0.0798 -0.99652,-0.16945 -0.89895,-2.10144 z"
       id="path626"
       transform="matrix(0.26458333,0,0,0.26458333,58.4133,113.89046)"
       sodipodi:nodetypes="cssssssssscssssssssssssscssssssscssscssssssssssssssssssscscscsscc" /><path
       style="fill:#abd7e6;fill-opacity:1;stroke:#000000;stroke-width:1.51181;stroke-linecap:round;stroke-linejoin:round;stroke-dasharray:none;stroke-opacity:1"
       d="m 275.13038,164.0884 c -0.1056,-0.24453 -0.74856,-1.62318 -0.60036,-3.13896 0.47989,-4.90892 0.75462,-8.16672 0.90889,-8.77336 0.74466,-3.95344 1.17649,-7.14909 1.58804,-10.28885 1.39459,-9.7178 2.30298,-13.38013 2.721,-27.14088 0.32422,-10.67342 0.85875,-24.878651 1.19988,-31.887157 0.62278,-12.795266 -0.19388,-24.350849 -2.25354,-31.887157 -0.6389,-2.337732 -1.72272,-4.609366 -3.12578,-6.551443 -0.43653,-0.604239 -0.7937,-1.217682 -0.7937,-1.363206 0,-0.145521 -0.0844,-0.264585 -0.18755,-0.264585 -0.27715,0 -2.18461,-2.401973 -2.36259,-3.338914 -1.33411,-3.420354 -0.8219,-6.995274 0.91167,-10.083552 0.72005,-1.247138 1.87555,-2.015341 1.87555,-2.079867 0,-0.254496 2.04552,-4.387543 2.94641,-5.953338 1.45686,-2.532076 2.639,-3.831723 4.26912,-4.693478 1.40413,-0.742285 4.99151,-0.732 6.58133,0.01887 0.61222,0.289148 1.188,0.525724 1.27952,0.525724 0.43153,0 2.26473,1.777803 2.63942,2.559659 0.61015,1.273173 0.59265,5.788465 -0.0301,7.753287 -0.90234,2.847163 -3.32719,6.756759 -4.19074,6.756759 -0.13117,0 -0.20379,-0.543263 -0.1664,-1.244666 0.0629,-1.18039 0.0349,-1.248327 -0.54285,-1.315558 -0.83373,-0.09702 -2.76389,1.264515 -3.65821,2.5805 -0.69127,1.017205 -0.71049,1.121317 -0.68467,3.709295 0.0146,1.464494 0.13406,2.798064 0.26544,2.963491 0.13138,0.165427 0.0796,0.827376 0.39889,1.249092 1.82907,2.415885 4.23241,11.681307 4.80034,12.765786 0.61599,2.158806 1.15551,3.042172 1.81813,5.644348 0.78811,4.031793 1.26428,5.282432 1.57184,6.69395 0.51971,2.38515 1.23433,5.91562 1.15647,6.453091 -0.0531,0.366311 -1.21986,0.463964 -1.81264,0.493125 -3.93171,0.193402 -5.53361,3.403923 -6.69593,12.515907 -0.29656,2.324913 0.0504,7.208174 0.43146,7.589239 0.14201,0.142017 0.39172,1.387033 0.47386,1.557835 0.4313,0.896822 0.70823,1.900589 1.28076,2.635895 0.64286,0.825655 1.02934,1.13638 2.08546,1.14619 0.82446,0.008 1.10703,-0.0057 0.96735,0.480218 -0.0843,0.29338 0.13397,1.51698 0.0709,1.77776 -0.063,0.26079 -0.54797,1.67336 -0.66343,1.93415 -0.46444,1.04902 -1.82541,8.27571 -2.95218,15.60033 -0.84187,1.78424 -0.69764,4.60356 -0.94563,6.31543 -0.18772,1.30393 -0.77576,4.37385 -1.04317,6.06897 -0.26742,1.69512 -0.58529,3.46285 -0.78168,4.83198 -0.50598,2.88395 -0.89866,4.52862 -1.44386,6.69046 -2.04073,7.2965 -3.98824,12.63876 -6.24948,18.29327 -0.12978,0.52157 -0.33524,1.16169 -0.45658,1.42247 -0.12134,0.26079 -0.26295,0.68753 -0.31469,0.94832 -0.0901,0.45418 -0.10216,0.45542 -0.28606,0.0296 z"
       id="path628"
       transform="matrix(0.26458333,0,0,0.26458333,58.4133,113.89046)"
       sodipodi:nodetypes="csccssssssccsssssscsssssssccssssssscsssccscccsscc" /><path
       style="fill:#abd7e6;fill-opacity:1;stroke:#000000;stroke-width:1.51181;stroke-linecap:round;stroke-linejoin:round;stroke-dasharray:none;stroke-opacity:1"
       d="m 274.67382,169.91573 c 0.003,-0.0978 -0.16892,-2.07331 -0.0385,-2.59488 0.13038,-0.52158 0.10844,-2.28887 0.295,-3.20162 0.33182,-1.62353 1.37517,-2.42261 2.37655,-5.76322 0.67419,-1.41785 1.18067,-2.78303 1.70261,-4.25451 0.20913,-0.45446 2.00463,-6.06202 2.73281,-8.53485 0.94747,-3.21756 1.13396,-3.92332 1.47222,-5.57136 0.36143,-1.76089 0.96671,-5.49611 1.63278,-10.07587 0.18964,-1.30393 0.4508,-2.79753 0.58035,-3.31911 0.12956,-0.52157 0.30127,-1.64177 0.38158,-2.48933 0.0803,-0.84756 0.24103,-1.91441 0.35715,-2.37079 0.11612,-0.45638 0.38479,-1.94998 0.59704,-3.31911 0.76944,-4.96343 1.2008,-7.47508 1.34366,-7.82362 0.0802,-0.19559 0.26835,-1.24987 0.41817,-2.34284 0.14983,-1.09297 0.3641,-2.15983 0.47617,-2.37079 0.11207,-0.21096 0.3258,-1.06502 0.47495,-1.8979 0.14915,-0.83288 0.36323,-1.68637 0.47572,-1.89664 0.11249,-0.21026 0.41706,-1.1291 0.67682,-2.04185 1.37082,-4.816881 1.82657,-7.83364 1.14386,-7.571662 -0.69636,0.267219 -0.4065,1.518547 -0.54312,3.627216 -0.16452,2.539499 -1.38347,3.593002 -2.40434,3.581333 -0.92903,-0.01062 -1.88899,-0.956195 -2.57962,-2.540962 -0.32678,-0.749844 -0.70199,-1.560908 -0.8338,-1.802363 -0.47097,-0.862704 -0.67413,-4.47984 -0.4328,-7.705492 0.13028,-1.741211 0.3271,-3.341496 0.43738,-3.556189 0.11029,-0.214693 0.26962,-0.923779 0.35407,-1.575747 0.30957,-2.389823 1.54153,-5.541351 2.59958,-6.650097 1.04185,-1.091769 2.79732,-1.92781 4.38195,-1.928744 1.60431,-9.46e-4 6.22583,0.607045 6.8315,0.943671 0.19987,0.111087 1.47267,0.465619 1.92476,0.56193 1.01668,0.216584 2.64831,1.017193 3.33756,1.588086 0.28296,0.234366 1.11623,1.18645 1.39988,1.739212 0.42684,0.831814 0.39427,1.836114 0.25487,2.868396 -0.0926,0.685978 -0.25018,1.622912 -0.35009,1.818502 -0.0999,0.19559 -0.24416,1.685868 -0.39585,3.424688 -0.23485,1.844533 -0.78418,3.950827 -1.0309,5.553515 -1.06676,4.169126 -1.92312,4.596927 -3.45951,4.596927 -0.55903,0 -2.02185,-0.750113 -2.30938,-0.951505 -0.7259,-0.50844 -1.79546,-1.281248 -2.15416,-2.415151 -0.44646,-1.411349 0.0804,-2.454869 -0.35764,-1.411886 -0.33444,0.796281 0.212,2.344412 0.13451,10.150992 -0.0498,5.02015 -0.13955,10.48593 -0.27468,11.92026 -0.79406,8.42843 -2.01206,12.86781 -3.02664,20.2301 -0.81115,5.88614 -0.24824,6.13281 -1.94711,9.40481 -2.8669,5.52161 -3.57757,7.07446 -4.56487,9.62448 -0.97144,2.75318 -1.94347,5.24327 -2.78263,6.98151 -1.00831,2.08564 -1.86955,3.06468 -4.99205,6.19314 -3.03344,3.03923 -4.33328,3.71963 -4.31577,3.16932 z"
       id="path630"
       transform="matrix(0.26458333,0,0,0.26458333,58.4133,113.89046)"
       sodipodi:nodetypes="cssccsssssssssssssssssssssssssssssccssssssssccsc" /><path
       style="fill:#ffffff;fill-opacity:1;stroke:#000000;stroke-width:1.51181;stroke-linecap:round;stroke-linejoin:round;stroke-dasharray:none;stroke-opacity:1"
       d="m 278.50414,121.00464 c -0.19985,-2.10875 -0.65185,-4.23059 -0.90551,-6.2536 -1.15942,-7.77021 -0.71044,-9.33812 -0.22087,-23.594074 0.23429,-6.822152 0.93277,-15.563702 1.41129,-17.662403 0.11892,-0.521574 0.34143,-1.801802 0.49447,-2.844951 0.15303,-1.043148 0.41593,-2.430062 0.58422,-3.08203 l 0.30598,-1.185396 0.79526,1.297258 c 0.89216,1.455315 -0.0573,21.990555 -0.73902,35.089716 -0.14929,2.86866 -0.46113,9.2384 -0.54238,12.49824 -0.12768,5.12295 -0.92729,6.4338 -1.18344,5.73724 z"
       id="path632"
       transform="matrix(0.26458333,0,0,0.26458333,58.4133,113.89046)"
       sodipodi:nodetypes="ccsssscsssc" /><path
       style="fill:#abff2e;fill-opacity:1;stroke:#000000;stroke-width:0.4;stroke-linecap:round;stroke-linejoin:round;stroke-dasharray:none;stroke-opacity:1"
       d="m 139.89832,167.632 c 0.10252,-0.45013 0.15906,-1.96616 0.16119,-4.32153 0.001,-1.41947 0.0321,-2.87136 0.0686,-3.22642 0.18726,-1.82484 0.28352,-3.61774 0.2265,-4.21884 -0.0403,-0.42529 -0.0375,-0.65714 0.009,-0.75169 0.0372,-0.0752 0.14416,-0.33433 0.23764,-0.57583 0.36676,-0.9475 1.17862,-2.4347 1.90048,-3.48136 0.83685,-1.21339 3.21681,-4.35797 3.67929,-4.86135 0.3671,-0.39958 0.9433,-1.10989 1.19577,-1.4741 0.39671,-0.57226 0.52331,-0.87759 1.24853,-3.0109 0.10061,-0.29598 0.10554,-0.30781 0.37881,-0.90955 0.39009,-0.85895 0.88012,-1.28739 1.46918,-1.28453 0.60093,0.003 1.12967,0.42413 1.66045,1.32275 0.17099,0.28948 0.5348,0.8086 0.80848,1.1536 0.27367,0.345 0.58541,0.81075 0.69275,1.035 0.1849,0.38629 0.19516,0.4473 0.19516,1.16045 0,0.53254 -0.0313,0.85365 -0.10694,1.09773 -0.0588,0.18975 -0.18197,0.61316 -0.27369,0.94091 -0.30592,1.09326 -0.72612,2.28819 -1.23526,3.51272 -0.38538,0.92688 -0.42579,1.01702 -0.8437,1.88182 -0.63683,1.31785 -1.00287,1.93168 -2.43132,4.07727 -1.27298,1.91207 -1.87522,2.9528 -2.45013,4.23409 -0.33984,0.75738 -0.40074,0.89059 -0.71127,1.55597 -0.73197,1.56839 -1.49258,2.61804 -2.75257,3.79856 -1.11947,1.04887 -2.92384,2.51773 -3.09281,2.51773 -0.0482,0 -0.0601,-0.0599 -0.0345,-0.1725 z"
       id="path634" /><path
       style="fill:#abff2e;fill-opacity:1;stroke:#000000;stroke-width:1.51181;stroke-linecap:round;stroke-linejoin:round;stroke-dasharray:none;stroke-opacity:1"
       d="m 253.78458,261.15852 c -1.70315,-1.11284 -2.1357,-1.81833 -3.31146,-5.4011 l -0.8726,-2.65895 0.13836,-5.63883 c 0.0761,-3.10135 0.20269,-8.04758 0.28132,-10.99163 0.12816,-4.79799 0.0937,-5.58547 -0.33292,-7.59743 -0.26175,-1.23453 -0.70424,-2.63162 -0.98333,-3.10463 -0.57263,-0.97054 -2.39232,-2.55585 -2.93371,-2.55585 -0.19622,0 -0.67681,0.32006 -1.06799,0.71124 -0.83139,0.83139 -1.03677,0.84782 -3.23705,0.25898 -3.84783,-1.02975 -13.16467,-5.41237 -21.81129,-10.25998 -2.79256,-1.56562 -9.28069,-5.43249 -10.66856,-6.35839 -0.52158,-0.34796 -1.96183,-1.30645 -3.20057,-2.12998 -12.45833,-8.28249 -23.4591,-22.18135 -31.05752,-39.23943 -0.29041,-0.65196 -0.71647,-1.61213 -0.94679,-2.13371 -1.72284,-3.90149 -4.19818,-10.93643 -5.42227,-15.41015 -1.13105,-4.13369 -1.33588,-5.60592 -1.33588,-9.60171 0,-3.77203 0.0224,-3.95423 0.62685,-5.09903 0.89085,-1.68721 1.71582,-2.42382 3.87766,-3.46235 1.04315,-0.50112 3.28354,-1.9222 4.97866,-3.15795 3.20177,-2.33412 5.07918,-3.23901 6.51968,-3.14244 1.12639,0.0755 1.16942,0.1126 2.87047,2.47394 1.74751,2.42584 3.54674,5.85259 4.82381,9.18726 0.49937,1.30394 1.1595,3.01928 1.46696,3.81187 0.30745,0.79259 0.55901,1.52327 0.55901,1.62373 0,0.10045 0.15256,0.51883 0.33903,0.92971 0.18646,0.41089 0.62617,1.49387 0.97712,2.40662 0.35095,0.91276 0.7785,1.97962 0.95011,2.3708 0.1716,0.39118 0.58984,1.40469 0.92942,2.25225 0.78855,1.96818 3.00737,6.50803 4.22928,8.65339 1.8907,3.31959 5.06795,8.09575 8.67421,13.03936 1.67551,2.29687 7.12658,9.55839 7.94181,10.57949 0.27319,0.3422 0.67904,0.87563 0.90187,1.1854 0.22284,0.30978 1.98315,2.59307 3.91181,5.074 1.92866,2.48092 5.00025,6.50891 6.82576,8.9511 4.1139,5.50361 8.77213,11.29111 9.40234,12.14973 1.51196,2.05991 7.58222,9.19967 9.25612,11.1163 2.72036,3.11484 2.58947,3.76117 2.80178,3.53607 0.10249,-0.10867 -0.30656,-1.47563 -0.10692,-2.38838 0.8089,-3.69817 0.94277,-3.44566 2.71941,-7.26058 0.8803,-1.89024 2.8621,-4.94828 6.0885,-9.84553 3.14894,-4.77966 3.59652,-7.27027 5.08187,-10.73069 0.47437,-1.10514 1.55362,-2.19147 1.67264,-2.45225 0.20702,-0.45361 0.74646,-1.49887 1.45994,-3.55619 0.18089,-0.52158 0.5446,-1.69512 0.88465,-2.60788 0.34004,-0.91275 0.74739,-2.10461 0.86702,-2.49579 0.71523,-1.2307 1.20422,-2.64858 1.62193,-3.81911 0.85915,-2.24336 2.36853,-5.18778 3.46064,-6.87055 0.49368,-0.76068 2.86489,-2.42621 4.58186,-4.12133 1.71697,-1.69512 3.54452,-3.6257 4.06122,-4.29018 1.29385,-1.66389 2.69809,-4.56847 4.00061,-8.27502 0.36657,-1.04315 0.74127,-2.00332 0.83265,-2.13371 0.0914,-0.1304 0.3028,-0.66382 0.46983,-1.1854 0.28389,-0.88646 0.8622,-2.04738 4.0154,-8.06069 1.81704,-3.46518 2.68573,-4.53276 4.24724,-5.21968 1.02067,-0.44899 1.64514,-0.44347 2.78705,0.0247 1.216,0.49849 2.17248,1.59653 3.67224,4.21575 0.68173,1.19057 1.98629,3.28487 2.89903,4.65401 2.06637,3.09959 3.26731,5.49294 3.9852,7.94215 0.51459,1.7556 0.5542,2.2933 0.53261,7.23092 -0.0156,3.57961 -0.15998,6.38708 -0.43878,8.53485 -0.32536,2.50647 -0.45765,6.10551 -0.60999,16.59555 -0.20591,14.17843 -0.29848,15.39026 -1.44843,18.96073 -0.42777,1.32819 -0.85261,2.05991 -1.86181,3.20669 -0.71916,0.8172 -2.2144,3.0686 -3.32274,5.00311 -2.34233,4.08829 -3.73123,6.21354 -5.20566,7.96546 -1.14086,1.35558 -4.35568,4.3279 -5.69999,5.27002 -3.43145,2.40484 -4.45301,3.02019 -5.53714,3.33536 -1.01571,0.29527 -1.34981,0.53673 -1.88524,1.36249 -0.9482,1.46233 -1.18923,2.6157 -1.02815,4.91985 0.54319,7.77024 0.6648,9.17465 0.86026,9.93409 0.12075,0.46916 0.3827,1.49313 0.5821,2.2755 1.02039,4.00356 0.0126,7.15866 -2.85596,8.94101 -3.10687,1.93044 -7.61431,2.66782 -20.00785,3.27312 -6.33387,0.30934 -5.86469,0.35327 -7.47674,-0.70005 z"
       id="path636"
       transform="matrix(0.26458333,0,0,0.26458333,58.4133,113.89046)"
       sodipodi:nodetypes="sscssssssssssssssssssssssssssssssssssssssssssccsssssssssssssssssssssssssssss" /><path
       style="fill:#008a00;fill-opacity:1;stroke:#000000;stroke-width:0.4;stroke-linecap:round;stroke-linejoin:round;stroke-dasharray:none;stroke-opacity:1"
       d="m 74.469751,182.06038 c -0.528703,-0.19001 -0.618363,-0.30189 -0.603439,-0.75299 0.0096,-0.29141 0.119175,-2.64556 0.243409,-5.23144 0.234058,-4.87184 0.150007,-11.31575 -0.190918,-14.6371 -0.263574,-2.56779 -0.952857,-5.63893 -1.553823,-6.92317 -0.286814,-0.6129 -0.854705,-1.4476 -1.261981,-1.85488 -0.779139,-0.77913 -2.993544,-1.95582 -3.680662,-1.95582 -0.498195,0 -0.514122,-0.20037 -0.04936,-0.62097 0.724355,-0.65553 0.326079,-1.26415 -1.862903,-2.84676 -1.340767,-0.96936 -4.188977,-3.49609 -4.317205,-3.82992 -0.03253,-0.0847 0.140581,-0.15397 0.384683,-0.15397 1.428586,0 1.382756,-0.92224 -0.163062,-3.28127 -0.320067,-0.48844 -0.712279,-1.34542 -0.871582,-1.90439 -0.179757,-0.63073 -0.456771,-1.14776 -0.730173,-1.36282 l -0.44053,-0.34652 0.607932,-0.85492 c 0.867437,-1.21985 0.908241,-1.48071 0.46509,-2.97347 -0.605387,-2.03925 -0.467174,-3.12844 0.704975,-5.55556 0.925562,-1.91651 0.944488,-1.98662 0.747481,-2.76901 -0.111169,-0.44149 -0.202125,-0.83699 -0.202125,-0.87889 0,-0.0419 0.327735,-0.12859 0.728301,-0.19264 0.400566,-0.064 0.951261,-0.23176 1.223766,-0.37268 0.47385,-0.24503 1.241481,-1.5147 1.241481,-2.05342 0,-0.14088 0.155984,-0.35356 0.346631,-0.47262 0.190648,-0.11906 0.442802,-0.53746 0.560342,-0.92978 0.177667,-0.59299 0.29126,-0.71375 0.67353,-0.71601 0.606864,-0.004 0.762633,-0.12341 1.322619,-1.01745 0.288642,-0.46082 0.604614,-0.75403 0.81257,-0.75403 0.21563,0 0.361041,-0.14358 0.396968,-0.39197 0.04329,-0.29928 0.224499,-0.42571 0.766372,-0.53468 0.390323,-0.0785 1.339355,-0.39451 2.108961,-0.70227 1.557491,-0.62284 1.268862,-0.65868 3.745878,0.46508 1.100009,0.49905 1.566269,0.62255 2.072322,0.54892 0.572864,-0.0833 0.659923,-0.047 0.709677,0.29639 0.03119,0.21527 0.412216,0.66205 0.846721,0.99285 0.669617,0.5098 0.888705,0.58568 1.437613,0.49791 0.621953,-0.0995 0.658489,-0.0758 0.922521,0.59632 0.191111,0.48652 0.412947,0.73452 0.727694,0.81351 0.319903,0.0803 0.515146,0.30384 0.665317,0.76176 0.278432,0.84903 2.509973,3.16343 3.195316,3.31396 0.343154,0.0754 0.511529,0.22245 0.511529,0.44685 0,0.39953 0.503534,0.70182 1.169059,0.70182 0.470231,0 0.474472,0.009 0.164044,0.35212 -0.283786,0.31359 -0.296275,0.46362 -0.114088,1.37079 0.250674,1.2482 0.580877,1.65075 1.092168,1.33144 0.341016,-0.21297 0.349848,-0.18706 0.243811,0.71515 -0.07393,0.62901 -0.01781,1.24664 0.171053,1.88262 0.19235,0.6477 0.247031,1.27223 0.173223,1.97838 -0.09889,0.94616 -0.06971,1.07003 0.351277,1.49102 0.252521,0.25252 0.593442,0.45913 0.757602,0.45913 0.210101,0 0.06034,0.25458 -0.505835,0.85987 -0.693288,0.74118 -0.891535,1.13912 -1.436275,2.88306 -0.463918,1.4852 -0.846765,2.32804 -1.43973,3.16958 -1.219269,1.7304 -1.344888,2.47161 -0.565553,3.33707 l 0.362723,0.4028 -0.433514,0.30338 c -0.878615,0.61486 -1.764317,1.51305 -1.769778,1.79472 -0.0031,0.15941 -0.511163,0.63048 -1.129049,1.04682 -1.708926,1.1515 -2.392896,1.88902 -2.526455,2.72425 -0.08519,0.53275 -0.222356,0.75686 -0.536305,0.87622 -0.509893,0.19386 -0.82406,0.9375 -0.677662,1.60405 0.09548,0.4347 0.05227,0.49487 -0.391866,0.54579 -0.431568,0.0495 -0.543139,0.18938 -0.823806,1.03303 -0.658895,1.98056 -0.798292,4.45646 -0.903114,16.04072 -0.05555,6.13893 -0.146719,11.20741 -0.202599,11.26328 -0.20798,0.20799 -2.672487,0.18595 -3.271267,-0.0292 z"
       id="path638" /></g></svg>
